PathFileType	4	(X/Y/Z)	./resultDataOpenSim/trcMotMarkerGrf/sub09/qtm-13-03.trc
DataRate	CameraRate	NumFrames	NumMarkers	Units	OrigDataRate	OrigDataStartFrame	OrigNumFrames
250.000000	250.000000	13	24	m	250.000000	319	510
Frame#	Time	L.Toe.Tip			R.Toe.Tip			L.Ankle.Lat			R.Ankle.Lat			L.Ankle.Med			R.Ankle.Med			L.Heel			R.Heel			L.Knee.Lat			R.Knee.Lat			L.Knee.Med			R.Knee.Med			L.Thigh.Upper			R.Thigh.Upper			L.ASIS			R.ASIS			V.Sacral			L.Acromium			R.Acromium			C7			L.Elbow			R.Elbow			L.Wrist.Lat			R.Wrist.Lat
		X1	Y1	Z1	X2	Y2	Z2	X3	Y3	Z3	X4	Y4	Z4	X5	Y5	Z5	X6	Y6	Z6	X7	Y7	Z7	X8	Y8	Z8	X9	Y9	Z9	X10	Y10	Z10	X11	Y11	Z11	X12	Y12	Z12	X13	Y13	Z13	X14	Y14	Z14	X15	Y15	Z15	X16	Y16	Z16	X17	Y17	Z17	X18	Y18	Z18	X19	Y19	Z19	X20	Y20	Z20	X21	Y21	Z21	X22	Y22	Z22	X23	Y23	Z23	X24	Y24	Z24

319	1.272	0.1160254	0.00040933498	-0.0059451795	0.9876541	0.039800718	0.03396594	0.065452543	0.1411743	-0.089542143	0.83965993	0.052773191	0.077754525	0.099924865	0.14423705	0.0021883384	0.84452478	0.097637516	-0.01282739	0.0018119396	0.17519589	-0.043251423	0.76972059	0.03148185	0.033161218	0.38182238	0.42116163	-0.13691606	0.83417474	0.50898741	0.13395638	0.39518919	0.40665303	-0.011912069	0.81186923	0.49557532	0.010047198	0.51278883	0.8091626	-0.15123865	0.59830356	0.83335929	0.21341054	0.6250055	0.88306031	-0.11467319	0.66030478	0.91354049	0.12344426	0.4804339	0.95750744	0.025359544	0.65337715	1.3460164	-0.15108334	0.63511508	1.357701	0.17988745	0.58070139	1.4063188	0.011647449	0.50527125	1.0039606	-0.2244944	0.46013476	1.0503838	0.26903798	0.69499407	0.81152503	-0.24264651	0.53772865	0.79569983	0.33573378
320	1.276	0.1186181	0.0022461381	-0.0067780369	0.98787712	0.039622143	0.033546611	0.072341549	0.14491713	-0.090247096	0.84028368	0.052527616	0.077354726	0.10688239	0.14729498	0.0014194935	0.8449213	0.09748726	-0.013171162	0.0096444547	0.18072639	-0.044069966	0.76979271	0.031505191	0.033040109	0.39274313	0.41959906	-0.13821024	0.83959865	0.50855735	0.13353681	0.40647964	0.40449268	-0.013444386	0.81779713	0.49563155	0.0093737667	0.51967212	0.80868525	-0.15077045	0.60484593	0.8340747	0.21381548	0.63144953	0.88326369	-0.11410414	0.66687044	0.91414458	0.12393463	0.48658047	0.95794536	0.025733321	0.66027269	1.3461459	-0.15105103	0.64211938	1.3580242	0.17990243	0.58733035	1.4067612	0.01171008	0.51133015	1.0045346	-0.22417744	0.46761053	1.0502146	0.26918063	0.69973913	0.81081154	-0.24244641	0.54617969	0.79559486	0.33557852
321	1.28	0.12143424	0.0042487938	-0.007661757	0.98801494	0.039474952	0.033184498	0.079591747	0.14871014	-0.090845059	0.8407322	0.052337534	0.07705957	0.11413605	0.15043339	0.00076376837	0.84515947	0.097323254	-0.013466744	0.017787201	0.18632425	-0.04483851	0.76980397	0.031508358	0.032921686	0.40387925	0.41804319	-0.13943421	0.84482637	0.5081121	0.13303641	0.41752775	0.40265283	-0.014925433	0.82328415	0.49550878	0.0087849871	0.52646481	0.80827109	-0.15033091	0.61137806	0.8347664	0.21418117	0.63779187	0.88356696	-0.1135898	0.67333607	0.91468986	0.12439587	0.49268891	0.95848387	0.026218549	0.66713282	1.346319	-0.15108417	0.6490527	1.3584427	0.17989685	0.59387197	1.4072317	0.011762232	0.51733086	1.0051315	-0.22388635	0.47498263	1.0501314	0.26932203	0.70441635	0.81015492	-0.24225679	0.55467296	0.79559236	0.33538576
322	1.284	0.12448113	0.0064106227	-0.0086056786	0.98807534	0.039361969	0.032981584	0.087209506	0.15257537	-0.091388596	0.84096826	0.052226791	0.076901662	0.12169095	0.15363375	0.00021007956	0.84529082	0.097180168	-0.013678091	0.026241885	0.19197911	-0.045543284	0.76977076	0.031512357	0.032834069	0.41522769	0.4165322	-0.14057493	0.8499285	0.50767481	0.13253476	0.42865307	0.40109893	-0.016315492	0.82832662	0.49526137	0.008312917	0.53317691	0.80793008	-0.14992303	0.61791489	0.83542228	0.21451118	0.64404577	0.88396451	-0.11312489	0.67969798	0.91520391	0.12482094	0.49878804	0.95911186	0.026745221	0.67389329	1.3465581	-0.15115035	0.65591233	1.3589525	0.17987106	0.60034304	1.4077459	0.011793336	0.52327095	1.0057476	-0.22360941	0.48235014	1.0501363	0.2694996	0.70905304	0.8095418	-0.24205744	0.56321272	0.79569616	0.33515113
323	1.288	0.12776571	0.0087268487	-0.0096227309	0.98808482	0.039277683	0.032897639	0.095186684	0.15652973	-0.091916812	0.84104838	0.05219405	0.076846678	0.12954437	0.15687564	-0.00025956653	0.84540545	0.097080229	-0.013804052	0.035017481	0.19767883	-0.046165773	0.76971869	0.031533263	0.032789642	0.42677382	0.41510771	-0.14163735	0.85490024	0.5072504	0.1321037	0.4401132	0.39977799	-0.017546947	0.83296185	0.49494123	0.0079680645	0.53982058	0.80766707	-0.14954335	0.62445653	0.83604299	0.21480797	0.65023764	0.88445414	-0.11268714	0.68595434	0.91571409	0.12521155	0.50496224	0.95981056	0.027194907	0.68046841	1.3468837	-0.15120394	0.66269874	1.3595465	0.17982536	0.60675787	1.4083342	0.011799595	0.52918206	1.0063897	-0.22335379	0.48982707	1.0502278	0.26976126	0.71367912	0.80897132	-0.24182185	0.57179429	0.79589796	0.33487157
324	1.292	0.13128796	0.011204231	-0.010723217	0.98807364	0.039208752	0.032857208	0.1035122	0.16058066	-0.092460659	0.84107028	0.052213441	0.076836892	0.13768219	0.16015022	-0.00067260749	0.84556889	0.097023874	-0.013864109	0.044127307	0.20341647	-0.046682525	0.76966793	0.031569862	0.032783989	0.43848286	0.41379855	-0.14261987	0.85968702	0.5068422	0.13177339	0.45182647	0.39862146	-0.018563845	0.83724959	0.49458822	0.007746724	0.54639613	0.80748918	-0.14918702	0.63098059	0.83663998	0.21507296	0.65639375	0.8850415	-0.11225257	0.69210521	0.91624637	0.12557634	0.51123793	0.96056086	0.027524622	0.68682164	1.3473034	-0.15123607	0.66940785	1.3602248	0.17976199	0.61312058	1.4090173	0.011789779	0.53508966	1.0070696	-0.2231258	0.49741622	1.0504105	0.27011433	0.71830088	0.80845724	-0.24154289	0.58040525	0.79619245	0.33454362
325	1.296	0.13505317	0.013868386	-0.011908465	0.98806106	0.039147187	0.032831971	0.11215731	0.16471682	-0.093039257	0.84110422	0.052249582	0.076833743	0.14608549	0.1634625	-0.0010677252	0.84579769	0.096996465	-0.013880785	0.053589335	0.20919274	-0.047070804	0.76962659	0.031609874	0.032806801	0.45031855	0.41261785	-0.14350992	0.86422604	0.50646065	0.13154098	0.46365495	0.39756146	-0.01938667	0.84125255	0.49423535	0.0076353702	0.55289133	0.80741154	-0.1488558	0.63744916	0.83723186	0.21530747	0.66252401	0.8857341	-0.1118144	0.69815335	0.91682632	0.12592438	0.51755753	0.96136211	0.027778981	0.69297839	1.3478177	-0.15126961	0.67603358	1.3609948	0.17968467	0.61942177	1.4097987	0.011776055	0.5409713	1.0077888	-0.22290784	0.50495223	1.0506982	0.27050265	0.72287723	0.80801073	-0.24126335	0.58903332	0.79658904	0.33416687
326	1.3	0.1390945	0.016760736	-0.013179604	0.98805444	0.039095554	0.032821291	0.12103487	0.1688837	-0.093618686	0.84118438	0.052273906	0.07682287	0.1547429	0.16681909	-0.001479554	0.84607214	0.096984542	-0.013865912	0.063416094	0.21500601	-0.04732233	0.76959493	0.031644462	0.032853518	0.46224903	0.41156468	-0.14429303	0.86847354	0.50610583	0.13139875	0.47555318	0.39658614	-0.020065324	0.84502999	0.49391255	0.0076180607	0.55929725	0.80744142	-0.14855049	0.64382201	0.83784229	0.21551366	0.66862293	0.88653491	-0.11138146	0.70410965	0.91747594	0.1262611	0.52385447	0.96223018	0.028013093	0.6989836	1.348429	-0.15132469	0.6825777	1.3618613	0.17959639	0.62565416	1.4106677	0.01175915	0.54679073	1.0085457	-0.22267619	0.51224319	1.0511017	0.27085702	0.72736797	0.80763564	-0.24103142	0.59767649	0.79710812	0.33374567
327	1.304	0.14347023	0.01991157	-0.014546403	0.98805537	0.039057739	0.032817281	0.13003077	0.17301601	-0.094132046	0.84134043	0.052259636	0.076795638	0.16365187	0.17021421	-0.0019178239	0.84636005	0.096984249	-0.013821323	0.073602093	0.22084429	-0.047452524	0.76957347	0.031672987	0.03292275	0.47423073	0.41062126	-0.14494612	0.87244767	0.50576537	0.13136299	0.48741004	0.39571122	-0.020598885	0.84863448	0.49363707	0.0076843466	0.56561118	0.80757596	-0.14826576	0.65006289	0.83849494	0.2156975	0.67468294	0.88744167	-0.11096346	0.70999002	0.91820245	0.1265825	0.53008927	0.9631817	0.02824781	0.70486614	1.3491384	-0.1514146	0.689051	1.3628207	0.17949664	0.63182114	1.4116129	0.01173071	0.55254294	1.0093497	-0.22242572	0.51927751	1.051609	0.27117243	0.73179747	0.80734301	-0.24082695	0.60634011	0.79776415	0.33328402
328	1.308	0.14822638	0.023311825	-0.016019835	0.98806218	0.039030148	0.032810006	0.13909734	0.17711336	-0.09456909	0.84154971	0.052201978	0.07675695	0.17280784	0.17363099	-0.0023738904	0.84663402	0.096997085	-0.013750656	0.084122209	0.22668383	-0.047502521	0.7695642	0.031699243	0.033008131	0.48621502	0.40977136	-0.1454543	0.87621673	0.50542683	0.13145271	0.499107	0.39493244	-0.020960414	0.85210238	0.4934045	0.007824858	0.57182661	0.80782372	-0.14799857	0.65613514	0.83920969	0.21586837	0.68070137	0.88844923	-0.11056407	0.71580422	0.91899659	0.12687288	0.53622793	0.96423311	0.028479605	0.71063326	1.3499428	-0.15155193	0.69546277	1.363863	0.17937907	0.63792564	1.4126297	0.011684109	0.55823367	1.0102144	-0.2221605	0.52620407	1.052193	0.27150408	0.73620183	0.80714816	-0.24061055	0.61502268	0.79855481	0.33278104
329	1.312	0.15337157	0.026919313	-0.017594316	0.98806946	0.039004444	0.032800084	0.14826473	0.1812373	-0.09499331	0.84170732	0.0521405	0.076733404	0.18219864	0.17705913	-0.0028425561	0.84687886	0.097024402	-0.013663925	0.094934553	0.23248933	-0.047535607	0.76956444	0.031727344	0.033097236	0.4981867	0.40904155	-0.14584668	0.87985436	0.50507905	0.13167148	0.51071891	0.3942555	-0.021160698	0.85545743	0.49319613	0.0080274418	0.57793587	0.80821072	-0.14775272	0.66199603	0.84000091	0.21603441	0.68667932	0.88955194	-0.11018265	0.72155542	0.91985282	0.12711761	0.54220113	0.96539593	0.028702861	0.71628304	1.3508388	-0.15173988	0.70181531	1.364981	0.1792361	0.64396557	1.4137146	0.011616816	0.56385577	1.0111494	-0.22188076	0.53313882	1.0528405	0.27189114	0.74055373	0.80705532	-0.24040734	0.62370934	0.79946914	0.33223341
330	1.316	0.15890143	0.030688078	-0.019243628	0.98806946	0.038975678	0.032793681	0.1576004	0.18543668	-0.09547226	0.84172353	0.052122954	0.076749241	0.19180673	0.18050536	-0.0033248589	0.84708484	0.097068287	-0.013568051	0.1059909	0.2382246	-0.047615881	0.76956345	0.031756521	0.033174152	0.5101662	0.40850179	-0.1461787	0.88343485	0.50471414	0.13202749	0.52240598	0.39372558	-0.021256542	0.85872972	0.49299403	0.0082801051	0.58393617	0.8087619	-0.14754541	0.66760976	0.84088047	0.2162037	0.69261909	0.89074481	-0.10981727	0.72724715	0.92078448	0.12731449	0.54788827	0.96665526	0.028921869	0.72181635	1.3518256	-0.1519679	0.70810701	1.3661756	0.1790649	0.64994527	1.4148612	0.011526267	0.56939879	1.0121608	-0.22158681	0.54008793	1.053559	0.27232499	0.74480486	0.80706366	-0.24027104	0.63238272	0.80050242	0.33164107
331	1.32	0.16483217	0.034591502	-0.020932686	0.98805535	0.038946432	0.032794477	0.16720351	0.18971603	-0.09603059	0.84158731	0.052165376	0.076815148	0.20161297	0.18398507	-0.0038208492	0.84723343	0.09713519	-0.013457087	0.11725809	0.2438663	-0.047785044	0.7695475	0.031781133	0.033224959	0.52217484	0.40821381	-0.14649232	0.88699904	0.50432973	0.13251019	0.53419598	0.39340477	-0.021340218	0.8619629	0.4927893	0.0085673561	0.58982765	0.80948445	-0.14740745	0.67297135	0.84186251	0.21638767	0.69852277	0.89202348	-0.10946625	0.73288328	0.92181328	0.1274695	0.55318867	0.96796103	0.029144592	0.72724076	1.3529039	-0.15222226	0.71433605	1.3674519	0.17886733	0.65587846	1.4160593	0.011407275	0.5748555	1.0132548	-0.22127748	0.54700907	1.0543584	0.27278113	0.74894707	0.80717823	-0.24021607	0.64104358	0.8016603	0.3310121
